<svg xmlns="http://www.w3.org/2000/svg" viewBox="0 0 196.85 57.75"><defs><style>.cls-1{fill:#fff}</style></defs><g id="Ebene_2" data-name="Ebene 2"><g id="Ebene_1-2" data-name="Ebene 1"><path class="cls-1" d="M140 24.87a14.38 14.38 0 0 1 11.36 5.73l3.33-2.72a17.79 17.79 0 0 0-14.7-7.16c-10.33 0-17.36 6.84-17.33 18.65 0 9.61 5.17 18.42 17.44 18.38a17.84 17.84 0 0 0 14.52-7.42l-3.36-2.65A14.69 14.69 0 0 1 140 53.59c-8.46 0-12.68-5.51-12.7-14.24 0-8.89 4.11-14.45 12.61-14.48zM64.94 20.69L48.06 57.45h4.63l3.65-8.3h17.35l3.73 8.32h4.66L64.94 20.69zM58.34 45l6.6-14.09L71.67 45zM86.34 25.07h11.75v32.4l4.44-.01V25.07h11.73V20.9H86.34v4.17zM192.41 20.91v16.21h-19.75V20.91h-4.45v36.55h4.44V41.3h19.76v16.16h4.44V20.91h-4.44zM29.42 19.21c5.46 0 9.27-4 9.27-9.61C38.7 5 35.79 0 29.42 0s-9.27 5-9.27 9.61c0 5.75 3.73 9.61 9.27 9.61zm0-15.38c3.26 0 5.06 2.05 5.06 5.78s-1.8 5.78-5.06 5.78-5.05-2.05-5.05-5.78 1.79-5.78 5.05-5.78zM1.86 20.66v36.89h4.45v-25.4l13.02 13.26 2.85-2.94L1.86 20.66zM9 19.21a9.33 9.33 0 0 0 7.56-3.77l.11-.16-3.11-2.45-.12.18A5.94 5.94 0 0 1 9 15.35c-3.14 0-4.87-2-4.87-5.74C4.17 7 5 3.87 9 3.87a5.65 5.65 0 0 1 4.37 2.33l.12.19 3.1-2.51-.11-.15A9.1 9.1 0 0 0 9 0C3.43 0 0 3.68 0 9.61c0 7.08 4.63 9.61 9 9.61zM21.01 37.57l2.9 3.11 8.33-8.61v25.48h4.41V20.66L21.01 37.57z"/></g></g></svg>